<?xml version="1.0" ?><!DOCTYPE svg  PUBLIC '-//W3C//DTD SVG 1.1//EN'  'http://www.w3.org/Graphics/SVG/1.1/DTD/svg11.dtd'><svg height="574.000" viewBox="-654.000 -288.000 1282.000 574.000" width="1282.000" xmlns="http://www.w3.org/2000/svg"><polyline fill="none" points="-640.0,0.0 -639.6315698604072,1.375 -638.625,2.381569860407206 -637.25,2.75 -635.875,2.3815698604072066 -634.8684301395928,1.3750000000000007 -634.5,6.661338147750939e-16 -633.7631397208144,-2.749999999999999 -631.75,-4.7631397208144115 -629.0,-5.499999999999998 -626.25,-4.76313972081441 -624.2368602791856,-2.7499999999999964 -623.5,4.440892098500626e-15 -622.682993160195,3.5795408477198603 -620.3937908653346,6.450109730361254 -617.0857977051396,8.043155275500053 -613.4142022948604,8.043155275500053 -610.1062091346654,6.450109730361254 -607.817006839805,3.5795408477198603 -607.0,3.552713678800501e-15 -608.0893424530734,-4.772721130293139 -611.1416121795539,-8.60014630714833 -615.5522697264805,-10.724207034000063 -620.4477302735195,-10.724207034000063 -624.8583878204461,-8.60014630714833 -627.9106575469266,-4.77272113029314 -629.0,2.6645352591003757e-15 -627.6383219336583,5.965901412866432 -623.8229847755576,10.750182883935423 -618.3096628418994,13.405258792500092 -612.1903371581006,13.405258792500094 -606.6770152244424,10.750182883935429 -602.8616780663417,5.965901412866439 -601.5,1.0658141036401503e-14 -599.8659863203899,-7.159081695439704 -595.2875817306691,-12.90021946072249 -588.6715954102792,-16.08631055100009 -581.3284045897209,-16.086310551000086 -574.712418269331,-12.900219460722482 -570.1340136796102,-7.159081695439693 -568.5000000000001,2.3092638912203256e-14 -567.0346810008424,7.3666560730280075 -562.8618055378412,13.611805537841075" stroke="#add8e6" stroke-linecap="round" stroke-linejoin="round" stroke-width="3.0"/><polyline fill="none" points="-562.8618055378412,13.611805537841075 -556.6166560730281,17.784681000842312 -549.2500000000001,19.250000000000046 -541.8833439269721,17.78468100084232 -535.638194462159,13.611805537841088 -531.4653189991578,7.366656073028023 -530.0000000000001,3.907985046680551e-14 -531.6746502847518,-8.419035512031945 -536.443650813896,-15.556349186104026 -543.5809644879681,-20.325349715248294 -552.0000000000001,-21.99999999999999 -560.4190355120321,-20.3253497152483 -567.5563491861042,-15.556349186104034 -572.3253497152484,-8.419035512031957 -574.0000000000001,2.6645352591003757e-14 -572.1160184296544,9.471414951036008 -566.7508928343672,17.500892834367097 -558.7214149510361,22.8660184296544 -549.2500000000001,24.750000000000057 -539.7785850489641,22.866018429654403 -531.7491071656331,17.5008928343671 -526.3839815703458,9.471414951036012 -524.5000000000001,3.019806626980426e-14 -526.5933128559398,-10.52379439003995 -532.5545635173701,-19.44543648263005 -541.4762056099602,-25.406687144060385 -552.0000000000001,-27.5 -562.52379439004,-25.406687144060385 -571.4454364826302,-19.44543648263005 -577.4066871440605,-10.523794390039951 -579.5000000000001,2.842170943040401e-14 -577.6757017787738,10.346109335601518 -572.4228444043492,19.444325193017864 -564.3750000000001,26.197268464479325 -554.5028573744247,29.790434528619354 -543.9971426255754,29.790434528619354 -534.125,26.19726846447933 -526.0771555956509,19.444325193017868 -520.8242982212262,10.346109335601522 -518.9999999999999,3.019806626980426e-14 -520.9901435140649,-11.28666472974705 -526.7205333770736,-21.211991119655792 -535.4999999999999,-28.57883832488648" stroke="#add8e6" stroke-linecap="round" stroke-linejoin="round" stroke-width="3.0"/><polyline fill="none" points="-535.4999999999999,-28.57883832488648 -546.2696101369912,-32.49865584940288 -557.7303898630087,-32.49865584940289 -568.5,-28.578838324886497 -577.2794666229263,-21.211991119655814 -583.009856485935,-11.286664729747073 -585.0,8.881784197001252e-15 -582.8440111930962,12.227220123892685 -576.6360888415035,22.97965704629383 -567.125,30.96040818529375 -555.4579223515927,35.20687717018652 -543.0420776484073,35.20687717018654 -531.375,30.960408185293783 -521.8639111584965,22.979657046293877 -515.6559888069038,12.22722012389274 -513.5,6.217248937900877e-14 -515.8218340997425,-13.167775518038212 -522.5072889399194,-24.74732297293176 -532.75,-33.34197804570091 -545.3145451598232,-37.91509849097006 -558.6854548401768,-37.915098490970074 -571.25,-33.341978045700955 -581.4927110600806,-24.747322972931826 -588.1781659002575,-13.167775518038294 -590.5,-2.3092638912203256e-14 -588.0123206074187,14.108330912183842 -580.8493332786578,26.514988899569786 -569.875,35.723547906108166 -556.4129873287609,40.62331981175368 -542.0870126712391,40.6233198117537 -528.625,35.72354790610822 -517.6506667213421,26.51498889956987 -510.4876793925812,14.108330912183941 -507.9999999999999,7.638334409421077e-14 -510.1535132830131,-13.596747752497647 -516.4032522475022,-25.86255110086882 -526.1374488991311,-35.596747752497734 -538.4032522475022,-41.84648671698684 -551.9999999999999,-44.000000000000114 -565.5967477524977,-41.84648671698689 -577.8625511008688,-35.596747752497826 -587.5967477524978,-25.862551100868956 -593.8464867169869,-13.59674775249781" stroke="#add8e6" stroke-linecap="round" stroke-linejoin="round" stroke-width="3.0"/><polyline fill="none" points="-593.8464867169869,-13.59674775249781 -596.0000000000001,-9.769962616701378e-14 -593.7118921367986,14.446544487028728 -587.071544487029,27.478960544673093 -576.7289605446733,37.8215444870288 -563.696544487029,44.461892136798475 -549.2500000000001,46.75000000000008 -534.8034555129713,44.46189213679853 -521.7710394553269,37.82154448702891 -511.4284555129712,27.478960544673235 -504.7881078632015,14.446544487028898 -502.4999999999999,8.526512829121202e-14 -500.07729755660995,-15.296341221559835 -493.0463412215597,-29.095369988477373 -482.0953699884772,-40.04634122155985 -468.29634122155966,-47.07729755661004 -452.9999999999997,-49.499999999999915 -437.7036587784398,-47.077297556609984 -423.9046300115222,-40.04634122155974 -412.9536587784397,-29.09536998847723 -405.92270244338954,-15.296341221559674 -403.49999999999966,2.5224267119483557e-13 -400.94270297642146,16.146137956091284 -393.5211379560907,30.711779432282036 -381.9617794322814,42.27113795609135 -367.3961379560907,49.692702976422154 -351.24999999999966,52.25000000000041 -335.10386204390863,49.69270297642221 -320.5382205677179,42.27113795609146 -308.9788620439086,30.71177943228218 -301.55729702357775,16.146137956091458 -298.9999999999995,4.369837824924616e-13 -301.2278864512021,-15.495290626278216 -307.73105569428446,-29.735244960057475 -317.9826596330087,-41.56622658948385 -331.15217428489564,-50.02975974449818 -346.1726838949687,-54.440179303450996 -361.8273161050301,-54.440179303451025 -376.84782571510317,-50.02975974449826 -390.01734036699014,-41.56622658948397 -400.26894430571446,-29.73524496005764 -406.7721135487969,-15.495290626278406 -408.99999999999955,2.3447910280083306e-13" stroke="#add8e6" stroke-linecap="round" stroke-linejoin="round" stroke-width="3.0"/><polyline fill="none" points="-408.99999999999955,2.3447910280083306e-13 -406.6607192262368,16.270055157592818 -399.8323915210003,31.222007208061036 -389.06820738533986,43.64453791895872 -375.2402170008586,52.53124773172377 -359.4686819102819,57.16218826862423 -343.03131808971744,57.162188268624256 -327.2597829991407,52.53124773172385 -313.43179261465946,43.644537918958854 -302.66760847899894,31.22200720806121 -295.8392807737624,16.27005515759302 -293.4999999999996,4.511946372076636e-13 -295.95067509632247,-17.044819688906056 -303.1041612637131,-32.70876945606324 -314.3809255963098,-45.72284924843224 -328.8673917133854,-55.032735718948004 -345.3899522844658,-59.8841972337961 -362.61004771553326,-59.88419723379614 -379.1326082866136,-55.032735718948096 -393.61907440368924,-45.72284924843238 -404.89583873628595,-32.70876945606343 -412.0493249036766,-17.04481968890628 -414.49999999999955,2.1316282072803006e-13 -417.06206941888263,17.819584220220637 -424.5407140484274,34.19553170406674 -436.33005857796036,47.801160577907 -451.47500042763033,57.53422370617342 -468.7485864792144,62.6062061989691 -486.751413520785,62.60620619896906 -504.024999572369,57.53422370617332 -519.169941422039,47.80116057790684 -530.9592859515718,34.19553170406653 -538.4379305811166,17.819584220220403 -540.9999999999995,-2.842170943040401e-14 -538.7511045350781,-17.08205697676639 -532.1576766497725,-33.0 -521.6690475583117,-46.669047558312116 -507.99999999999955,-57.1576766497729 -492.0820569767659,-63.75110453507843 -474.99999999999955,-65.9999999999999 -457.9179430232332,-63.75110453507838 -441.99999999999955,-57.1576766497728 -428.33095244168743,-46.66904755831197" stroke="#add8e6" stroke-linecap="round" stroke-linejoin="round" stroke-width="3.0"/><polyline fill="none" points="-428.33095244168743,-46.66904755831197 -417.84232335022665,-32.99999999999982 -411.24889546492113,-17.082056976766186 -408.99999999999966,1.8474111129762605e-13 -411.34259944262624,17.793809350798483 -418.2107534898195,34.37500000000017 -429.13640879342455,48.61359120657529 -443.3749999999997,59.53924651018029 -459.9561906492014,66.40740055737355 -477.7499999999997,68.75000000000009 -495.543809350798,66.4074005573735 -512.1249999999998,59.53924651018019 -526.3635912065749,48.61359120657515 -537.28924651018,34.374999999999986 -544.1574005573732,17.793809350798274 -546.4999999999998,-3.552713678800501e-14 -544.0636965796681,-18.50556172483027 -536.9208163705871,-35.75000000000003 -525.5581348548378,-50.558134854838165 -510.74999999999966,-61.92081637058736 -493.5055617248299,-69.06369657966836 -474.99999999999966,-71.49999999999996 -456.49443827516944,-69.06369657966832 -439.24999999999966,-61.920816370587275 -424.4418651451615,-50.55813485483804 -413.0791836294123,-35.74999999999987 -405.9363034203313,-18.50556172483009 -403.4999999999997,1.5276668818842154e-13 -406.03000739803645,19.217314098862325 -413.4476137690052,37.125000000000156 -425.2473214968987,52.50267850310131 -440.62499999999983,64.30238623099471 -458.5326859011377,71.71999260196344 -477.7499999999999,74.2500000000001 -496.96731409886206,71.7199926019634 -514.8749999999999,64.30238623099461 -530.252678503101,52.50267850310117 -542.0523862309944,37.12499999999999 -549.4699926019632,19.217314098862133 -551.9999999999999,-5.684341886080802e-14 -549.3762886242581,-19.92906647289417 -541.6839560914016,-38.500000000000085 -529.4472221513639,-54.447222151364244" stroke="#add8e6" stroke-linecap="round" stroke-linejoin="round" stroke-width="3.0"/><polyline fill="none" points="-529.4472221513639,-54.447222151364244 -513.4999999999998,-66.68395609140185 -494.92906647289385,-74.37628862425832 -474.9999999999997,-77.00000000000004 -455.0709335271056,-74.37628862425828 -436.49999999999966,-66.68395609140177 -420.5527778486355,-54.44722215136412 -408.3160439085979,-38.49999999999993 -400.62371137574144,-19.929066472894 -397.9999999999997,1.2079226507921703e-13 -400.3173900602721,19.085424226932872 -407.1348819541563,37.06167297049069 -418.0562678333545,52.88403199470357 -432.4468364481902,65.63296330501925 -449.4702602583577,74.56754535416196 -468.13719974963794,79.16853270931992 -487.362800250362,79.16853270931989 -506.02973974164223,74.5675453541619 -523.0531635518097,65.63296330501913 -537.4437321666453,52.88403199470342 -548.3651180458435,37.06167297049051 -555.1826099397276,19.085424226932673 -557.5,-8.171241461241152e-14 -555.1026999376493,-19.74354230372362 -548.0501221163897,-38.33966169361102 -536.7521367241158,-54.70761930486572 -521.8653416053203,-67.89616893622677 -504.25490318100907,-77.13884002154683 -484.944276121064,-81.89848211308954 -465.0557238789356,-81.89848211308951 -445.7450968189906,-77.13884002154676 -428.13465839467943,-67.89616893622664 -413.24786327588396,-54.70761930486556 -401.94987788361,-38.33966169361082 -394.89730006235055,-19.7435423037234 -392.4999999999999,1.3855583347321954e-13 -394.97721006442896,20.401660380514453 -402.2648738130638,39.617650416731436 -413.9394587184136,56.53120661502796 -429.322480341169,70.15937456743437 -447.5199333796239,79.71013468893176 -467.4742480082338,84.62843151685922 -488.0257519917664,84.6284315168592" stroke="#add8e6" stroke-linecap="round" stroke-linejoin="round" stroke-width="3.0"/><polyline fill="none" points="-488.0257519917664,84.6284315168592 -507.9800666203763,79.71013468893167 -526.1775196588312,70.15937456743423 -541.5605412815866,56.53120661502778 -553.2351261869363,39.61765041673122 -560.5227899355712,20.401660380514222 -563.0000000000002,-9.947598300641403e-14 -560.4428799334928,-21.059778457305192 -552.9201302574827,-40.89563913985174 -540.8689458390571,-58.35479392519008 -524.9896977123419,-72.42258019864185 -506.2052300597433,-82.28142935631658 -485.60722786246856,-87.3583809206288 -464.39277213753167,-87.35838092062878 -443.79476994025697,-82.2814293563165 -425.0103022876584,-72.42258019864173 -409.1310541609432,-58.35479392518991 -397.07986974251764,-40.89563913985154 -389.55712006650754,-21.059778457304972 -387.00000000000017,1.2434497875801753e-13 -384.72470803050066,20.193774756535667 -378.01292476214473,39.374949324918546 -367.2012070339739,56.58169951868024 -352.8316995186803,70.9512070339739 -335.62494932491865,81.76292476214476 -316.4437747565358,88.47470803050075 -296.2500000000002,90.75000000000028 -276.05622524346467,88.4747080305008 -256.87505067508175,81.76292476214488 -239.66830048132005,70.95120703397407 -225.29879296602638,56.58169951868045 -214.48707523785552,39.37494932491879 -207.77529196949953,20.193774756535923 -205.5,3.836930773104541e-13 -203.15575978900048,-20.805707324915023 -196.24058914887613,-40.568129607491315 -185.1012436107607,-58.29629647379121 -170.29629647379144,-73.10124361076039 -152.56812960749153,-84.24058914887577 -132.8057073249152,-91.15575978900006 -111.99999999999979,-93.49999999999952 -91.19429267508437,-91.15575978899999 -71.43187039250807,-84.24058914887563" stroke="#add8e6" stroke-linecap="round" stroke-linejoin="round" stroke-width="3.0"/><polyline fill="none" points="-71.43187039250807,-84.24058914887563 -53.70370352620817,-73.10124361076019 -38.89875638923898,-58.29629647379096 -27.759410851123597,-40.56812960749103 -20.8442402109993,-20.805707324914717 -18.49999999999983,6.998845947236987e-13 -20.913188452499337,21.417639893295977 -28.03174646439205,41.76130989006569 -39.49871981245205,60.01089342890383 -54.73910657109685,75.25128018754859 -72.988690109935,86.71825353560855 -93.33236010670474,93.83681154750121 -114.75000000000003,96.25000000000067 -136.1676398932953,93.83681154750117 -156.51130989006504,86.71825353560845 -174.7608934289032,75.25128018754845 -190.00128018754796,60.01089342890365 -201.46825353560791,41.76130989006549 -208.5868115475006,21.417639893295757 -211.00000000000006,4.689582056016661e-13 -208.51786330600058,-22.02957246167468 -201.1959179223395,-42.95449017263782 -189.40131676433492,-61.72549038401419 -173.72549038401456,-77.40131676433452 -154.95449017263817,-89.19591792233906 -134.029572461675,-96.5178633060001 -111.99999999999984,-98.99999999999955 -89.97042753832469,-96.51786330600007 -69.04550982736154,-89.19591792233899 -50.27450961598516,-77.40131676433442 -34.598683235664815,-61.72549038401406 -22.804082077660265,-42.95449017263766 -15.482136693999221,-22.0295724616745 -12.999999999999766,6.572520305780927e-13 -15.55108493549923,22.641505030055683 -23.076417690928658,44.147670455212264 -35.1986466588778,63.44008733912689 -51.30991266087373,79.5513533411228 -70.60232954478836,91.67358230907193 -92.10849496994496,99.19891506450134 -114.74999999999999,101.75000000000078 -137.39150503005501,99.19891506450132 -158.8976704552116,91.67358230907189" stroke="#add8e6" stroke-linecap="round" stroke-linejoin="round" stroke-width="3.0"/><polyline fill="none" points="-158.8976704552116,91.67358230907189 -178.19008733912622,79.55135334112275 -194.30135334112214,63.44008733912682 -206.42358230907126,44.14767045521218 -213.94891506450068,22.64150503005559 -216.5000000000001,5.577760475716786e-13 -218.78357572331743,-21.726771690455326 -225.53449967634833,-42.503979201420634 -236.45772408781812,-61.42355886456299 -251.07585163549948,-77.65863426238728 -268.75000000000017,-90.49965469547345 -288.7077240878182,-99.38540595284319 -310.07677558853044,-103.92753806598422 -331.9232244114701,-103.92753806598424 -353.29227591218233,-99.38540595284323 -373.2500000000004,-90.49965469547351 -390.9241483645011,-77.65863426238735 -405.54227591218245,-61.42355886456308 -416.4655003236523,-42.50397920142073 -423.2164242766832,-21.72677169045542 -425.5000000000005,4.760636329592671e-13 -423.1563301787012,22.29852884020521 -416.2277503321695,43.62250496988014 -405.01707264671364,63.03996830836836 -390.01425753198805,79.70228253245119 -371.87500000000045,92.88122455588174 -351.39207264671353,102.00081137265596 -329.46067768545623,106.66247327824809 -307.0393223145445,106.66247327824811 -285.10792735328715,102.00081137265603 -264.6250000000002,92.88122455588186 -246.48574246801263,79.70228253245133 -231.482927353287,63.03996830836853 -220.27224966783112,43.622504969880325 -213.34366982129936,22.2985288402054 -210.99999999999997,6.608047442568932e-13 -213.40376391928132,-22.870285989952922 -220.50999965931382,-44.74103073833747 -232.0081306187557,-64.65637775217155 -247.39563330052553,-81.74593080251293 -265.99999999999994,-95.26279441628787 -287.0081306187558,-104.61621679246657 -309.5018690405582,-109.39740849050979" stroke="#add8e6" stroke-linecap="round" stroke-linejoin="round" stroke-width="3.0"/><polyline fill="none" points="-309.5018690405582,-109.39740849050979 -332.498130959442,-109.39740849050982 -354.9918693812444,-104.61621679246667 -376.0000000000002,-95.26279441628805 -394.6043666994747,-81.74593080251316 -409.9918693812446,-64.65637775217182 -421.49000034068655,-44.74103073833777 -428.5962360807191,-22.870285989953228 -431.0000000000005,3.552713678800501e-13 -428.53614198273715,23.442043139702786 -421.25225034920385,45.85955650679696 -409.4666661157759,66.27278719597692 -393.69447586696185,83.78957907257686 -374.62500000000057,97.6443642766962 -353.09166611577587,107.23162221227938 -330.03558423342844,112.1323437027737 -306.46441576657253,112.13234370277375 -283.40833388422504,107.23162221227953 -261.8750000000003,97.64436427669645 -242.80552413303894,83.7895790725772 -227.03333388422482,66.27278719597732 -215.2477496507968,45.859556506797404 -207.9638580172634,23.442043139703244 -205.49999999999991,8.135714324453147e-13 -207.71930011342675,-22.53293219286208 -214.2919139949462,-44.19993643816722 -224.96525977905586,-64.1683619137635 -239.3291667729536,-81.67083322704578 -256.83163808623584,-96.0347402209436 -276.8000635618321,-106.70808600505333 -298.4670678071372,-113.2806998865729 -321.00000000000006,-115.49999999999984 -343.532932192863,-113.280699886573 -365.1999364381681,-106.70808600505353 -385.1683619137644,-96.0347402209439 -402.67083322704667,-81.67083322704616 -417.0347402209445,-64.16836191376396 -427.7080860050542,-44.19993643816774 -434.28069988657376,-22.53293219286264 -436.5000000000007,2.3803181647963356e-13 -434.22785940768273,23.06943057840748 -427.4987547194604,45.252315877172265 -416.5712816547767,65.69618005456844" stroke="#add8e6" stroke-linecap="round" stroke-linejoin="round" stroke-width="3.0"/><polyline fill="none" points="-416.5712816547767,65.69618005456844 -401.86537687531,83.6153768753098 -383.9461800545687,98.32128165477663 -363.5023158771726,109.2487547194604 -341.31943057840783,115.97785940768281 -318.2500000000006,118.25000000000088 -295.18056942159336,115.97785940768293 -272.99768412282856,109.24875471946062 -252.55381994543237,98.32128165477695 -234.634623124691,83.61537687531023 -219.92871834522418,65.69618005456894 -209.00124528054042,45.25231587717281 -202.272140592318,23.069430578408067 -199.99999999999994,8.384404281969182e-13 -202.324981071209,-23.605928963950753 -209.21057656613416,-46.30469531617517 -220.39217691139186,-67.22399819537127 -235.44007947642757,-85.55992052357173 -253.77600180462795,-100.60782308860755 -274.695304683824,-111.78942343386535 -297.3940710360484,-118.6750189287906 -320.99999999999994,-120.99999999999979 -344.60592896395156,-118.67501892879072 -367.304695316176,-111.78942343386557 -388.2239981953721,-100.60782308860786 -406.55992052357254,-85.55992052357215 -421.60782308860837,-67.22399819537176 -432.78942343386615,-46.30469531617573 -439.6750189287914,-23.605928963951353 -442.00000000000057,2.1671553440683056e-13 -439.6221784499004,24.142427349496153 -432.5800921482724,47.35707475518021 -421.14436452244064,68.7518163361762 -405.75446417183593,87.50446417183576 -387.00181633617643,102.89436452244057 -365.6070747551805,114.33009214827241 -342.39242734949653,121.37217844990052 -318.2500000000006,123.75000000000081 -294.1075726505047,121.37217844990063 -270.8929252448207,114.33009214827264 -249.49818366382468,102.89436452244091 -230.74553582816512,87.50446417183622 -215.35563547756033,68.75181633617674" stroke="#add8e6" stroke-linecap="round" stroke-linejoin="round" stroke-width="3.0"/><polyline fill="none" points="-215.35563547756033,68.75181633617674 -203.91990785172848,47.35707475518082 -196.87782155010038,24.142427349496806 -194.50000000000009,8.917311333789257e-13 -196.65390288998645,-23.244314003795303 -203.04226298034897,-45.69707077267407 -213.44753233020376,-66.5936686039848 -227.51537197158655,-85.22249892128885 -244.76671849802398,-100.94917925094973 -264.6140979942678,-113.23815635641489 -286.3816317558814,-121.6709438613612 -309.3280525278922,-125.96037330132152 -332.67194747210766,-125.9603733013216 -355.61836824411847,-121.6709438613614 -377.38590200573213,-113.23815635641522 -397.233281501976,-100.94917925095017 -414.48462802841357,-85.22249892128939 -428.55246766979644,-66.59366860398542 -438.95773701965135,-45.697070772674756 -445.346097110014,-23.24431400379604 -447.5000000000005,1.3855583347321954e-13 -445.29927313414487,23.7496251777919 -438.7720356505136,46.690485354689756 -428.1405647930533,68.04135705189854 -413.76690255077085,87.0751619413179 -396.1405267520196,103.14372662597141 -375.86168248411826,115.69985540764233 -353.6209414668174,124.31596438008746 -330.17568546063245,128.6986422861339 -306.32431453936886,128.69864228613397 -282.87905853318387,124.31596438008769 -260.63831751588293,115.69985540764269 -240.35947324798155,103.14372662597188 -222.73309744923017,87.07516194131847 -208.35943520694767,68.04135705189921 -197.72796434948722,46.6904853546905 -191.2007268658558,23.74962517779269 -189.00000000000003,9.556799795973347e-13 -191.24755084172492,-24.254936351786366 -197.9136657186249,-47.68389993670333 -208.77133808369075,-69.48904549981017 -223.45082292687277,-88.92782496134484 -241.4522279979379,-105.33827400099098" stroke="#add8e6" stroke-linecap="round" stroke-linejoin="round" stroke-width="3.0"/><polyline fill="none" points="-241.4522279979379,-105.33827400099098 -262.1625370374967,-118.16155445886767 -284.8764853104848,-126.96098489881165 -308.82057655084384,-131.43691127094417 -333.1794234491556,-131.43691127094425 -357.1235146895147,-126.96098489881189 -379.83746296250285,-118.16155445886807 -400.5477720020617,-105.3382740009915 -418.54917707312694,-88.9278249613455 -433.2286619163091,-69.48904549981094 -444.08633428137506,-47.68389993670418 -450.7524491582752,-24.254936351787276 -453.0000000000003,2.1316282072803006e-14 -450.70562518240615,24.760247525782905 -443.9006329122374,48.67731451871896 -432.8167590395661,70.93673394772385 -417.83145159548445,90.78048798137381 -399.45501725210545,107.53282137601258 -378.3132434408892,120.62325351009504 -355.12608791221385,129.60600541753786 -330.6831614376806,134.1751802557565 -305.8168385623207,134.17518025575657 -281.37391208778746,129.6060054175381 -258.18675655911204,120.62325351009547 -237.04498274789572,107.53282137601316 -218.66854840451663,90.78048798137452 -203.68324096043486,70.93673394772466 -192.59936708776334,48.677314518719854 -185.79437481759442,24.76024752578385 -183.50000000000009,9.876544027065393e-13 -185.8411987934635,-25.265558699777465 -192.78506845690097,-49.67072910073262 -204.0951438371779,-72.38442239563558 -219.38627388215914,-92.63315100140085 -238.13773749785196,-109.72736875103224 -259.7109760807257,-123.08495256132048 -283.37133886508826,-132.25102593626212 -308.3131005737956,-136.91344924056685 -333.6868994262037,-136.91344924056693 -358.6286611349111,-132.2510259362624 -382.2890239192738,-123.08495256132093 -403.8622625021476,-109.72736875103287 -422.61372611784054,-92.63315100140161" stroke="#add8e6" stroke-linecap="round" stroke-linejoin="round" stroke-width="3.0"/><polyline fill="none" points="-422.61372611784054,-92.63315100140161 -437.90485616282194,-72.38442239563648 -449.214931543099,-49.67072910073362 -456.1588012065367,-25.26555869977852 -458.5000000000003,-9.592326932761353e-14 -456.3692873599626,24.35415691778691 -450.04189006522415,47.96832510142501 -439.7100628807681,70.12500000000003 -425.6877331474373,90.15096225853723 -408.40096225853785,107.43773314743684 -388.37500000000074,121.46006288076778 -366.2183251014258,131.791890065224 -342.6041569177878,138.11928735996264 -318.2500000000008,140.25000000000057 -293.8958430822138,138.11928735996284 -270.2816748985757,131.7918900652244 -248.1250000000007,121.46006288076836 -228.09903774146352,107.4377331474376 -210.8122668525639,90.15096225853814 -196.78993711923297,70.12500000000107 -186.45810993477676,47.968325101426146 -180.13071264003813,24.354156917788114 -178.0000000000002,1.1404210908949608e-12 -180.17249131925433,-24.831689406369904 -186.62395522761508,-48.90888049556952 -197.15836725882517,-71.49999999999892 -211.45564463398594,-91.9186281851741 -229.0813718148246,-109.5443553660129 -249.49999999999966,-123.84163274117384 -272.09111950442895,-134.3760447723841 -296.16831059362846,-140.82750868074504 -320.9999999999995,-142.9999999999994 -345.8316894063705,-140.82750868074527 -369.9088804955701,-134.37604477238452 -392.4999999999995,-123.84163274117445 -412.91862818517467,-109.54435536601369 -430.54435536601346,-91.91862818517505 -444.8416327411744,-71.50000000000001 -455.37604477238466,-48.90888049557071 -461.8275086807456,-24.831689406371183 -463.99999999999994,-1.8474111129762605e-13 -461.7857300015294,25.30922189495489 -455.2101994795463,49.849435889716005" stroke="#add8e6" stroke-linecap="round" stroke-linejoin="round" stroke-width="3.0"/><polyline fill="none" points="-455.2101994795463,49.849435889716005 -444.4732026015822,72.8749999999998 -429.90097758459143,93.68629411181294 -411.9362941118136,111.65097758459093 -391.12500000000057,126.22320260158189 -368.09943588971686,136.9601994795462 -343.55922189495584,143.53573000152946 -318.2500000000008,145.75000000000026 -292.94077810504575,143.5357300015297 -268.4005641102847,136.96019947954667 -245.37500000000088,126.22320260158259 -224.56370588818774,111.65097758459183 -206.59902241540976,93.68629411181401 -192.0267973984188,72.87500000000101 -181.28980052045452,49.84943588971733 -174.71426999847125,25.30922189495629 -172.50000000000045,1.2576606422953773e-12 -174.75604867768743,-25.78675438353785 -181.4556458132928,-50.78999128386047 -192.39522753801091,-74.24999999999866 -207.24240019683168,-95.45396003844976 -225.5460399615487,-113.75759980316695 -246.74999999999966,-128.60477246198792 -270.21000871613774,-139.54435418670627 -295.2132456164603,-146.2439513223119 -320.9999999999994,-148.49999999999912 -346.7867543835385,-146.24395132231214 -371.7899912838611,-139.54435418670678 -395.2499999999993,-128.60477246198866 -416.4539600384504,-113.7575998031679 -434.7575998031676,-95.4539600384509 -449.60477246198855,-74.24999999999994 -460.54435418670687,-50.78999128386188 -467.24395132231245,-25.786754383539343 -469.49999999999966,-2.7711166694643907e-13 -467.43714713966153,24.89493177996066 -461.3048578072209,49.110794717207995 -451.2704048699815,71.98704319685697 -437.60750204620473,92.89967279431187 -420.6888377083937,111.2782414893108 -400.97590891601754,126.62142983720715 -379.00643297876223,138.51071565657722 -355.3796799300466,146.62179022332361" stroke="#add8e6" stroke-linecap="round" stroke-linejoin="round" stroke-width="3.0"/><polyline fill="none" points="-355.3796799300466,146.62179022332361 -330.7401260026911,150.73340456725882 -305.75987399731065,150.73340456725896 -281.1203200699551,146.621790223324 -257.49356702123936,138.51071565657787 -235.52409108398393,126.62142983720804 -215.81116229160767,111.27824148931191 -198.89249795379646,92.89967279431316 -185.22959513001948,71.98704319685842 -175.19514219277988,49.110794717209565 -169.06285286033904,24.894931779962317 -167.00000000000068,1.4281908988778014e-12 -169.1003592759813,-25.347566903231495 -175.34414477810267,-50.00371825751966 -185.56104231420093,-73.29589852770768 -199.47236155295548,-94.58875775420717 -216.6986379696358,-113.30148224366059 -236.769983649146,-128.92363765242774 -259.1389046034423,-141.02909230487725 -283.1952349803164,-149.28764095465536 -308.28278079726016,-153.47401192302573 -333.7172192027384,-153.47401192302584 -358.80476501968224,-149.2876409546557 -382.8610953965564,-141.02909230487782 -405.2300163508528,-128.92363765242854 -425.3013620303632,-113.30148224366158 -442.52763844704367,-94.58875775420833 -456.4389576857984,-73.29589852770897 -466.6558552218969,-50.003718257521065 -472.89964072401847,-25.34756690323298 -474.9999999999993,-9.947598300641403e-14 -472.8621343083762,25.800202026504813 -466.5068526365741,50.89664179783381 -456.1075105016169,74.60475385856087 -441.9477748478846,96.27784271410496 -424.413886352335,115.32472299801289 -403.9841237856907,131.22584546765086 -381.2157578143534,143.5474689531798 -356.7298501093209,151.95349168598963 -331.1943124027889,156.21461927879517 -305.30568759721285,156.21461927879528 -279.7701498906808,151.95349168598997 -255.2842421856482,143.54746895318036" stroke="#add8e6" stroke-linecap="round" stroke-linejoin="round" stroke-width="3.0"/><polyline fill="none" points="-255.2842421856482,143.54746895318036 -232.51587621431082,131.22584546765162 -212.08611364766637,115.32472299801384 -194.5522251521166,96.27784271410607 -180.39248949838412,74.6047538585621 -169.99314736342674,50.89664179783516 -163.63786569162443,25.800202026506245 -161.50000000000105,1.3784529073745944e-12 -163.6753721072667,-26.25283714977552 -170.14214994874953,-51.789565338145344 -180.72393668256558,-75.91360918941145 -195.1320887512756,-97.96692767400015 -212.9735893256945,-117.34796375236257 -233.7617687794729,-133.52805328287138 -256.9295797678511,-146.06584560147977 -281.8450648010421,-154.61934241732135 -307.82859439716236,-158.95522663456208 -334.1714056028362,-158.9552266345622 -360.15493519895654,-154.6193424173217 -385.07042023214757,-146.0658456014803 -408.2382312205259,-133.52805328287215 -429.02641067430443,-117.34796375236354 -446.8679112487235,-97.96692767400127 -461.27606331743374,-75.9136091894127 -471.85785005125,-51.789565338146694 -478.3246278927331,-26.25283714977694 -480.499999999999,-7.815970093361102e-14 -478.5024332615602,25.38149195277721 -472.55891976888796,50.13800733733483 -462.8158085495621,73.65995858274096 -449.51300733733484,95.36815718445317 -432.97807524751715,114.72807524751667 -413.61815718445376,131.26300733733453 -391.9099585827417,144.565808549562 -368.38800733733564,154.30891976888802 -343.63149195277805,160.25243326156053 -318.2500000000008,162.24999999999952 -292.8685080472235,160.25243326156075 -268.11199266266584,154.30891976888847 -244.5900414172597,144.56580854956266 -222.8818428155475,131.26300733733538 -203.52192475248398,114.7280752475177 -186.98699266266613,95.36815718445433" stroke="#add8e6" stroke-linecap="round" stroke-linejoin="round" stroke-width="3.0"/><polyline fill="none" points="-186.98699266266613,95.36815718445433 -173.68419145043865,73.65995858274223 -163.9410802311126,50.13800733733619 -157.9975667384401,25.38149195277862 -156.00000000000108,1.3393730569077889e-12 -158.03142380180321,-25.81168673163659 -164.07567481130044,-50.98780407186469 -173.9839235089199,-74.90843245702348 -187.51219592813408,-96.98456662825625 -204.32738110421985,-116.67261889577847 -224.01543337174192,-133.48780407186445 -246.09156754297456,-147.01607649107885 -270.0121959281333,-156.92432518869853 -295.1883132683613,-162.968576198196 -320.9999999999992,-164.99999999999838 -346.81168673163717,-162.96857619819625 -371.9878040718653,-156.92432518869902 -395.9084324570241,-147.01607649107956 -417.98456662825686,-133.48780407186538 -437.6726188957791,-116.67261889577959 -454.4878040718651,-96.98456662825751 -468.0160764910795,-74.90843245702486 -477.9243251886992,-50.98780407186615 -483.9685761981967,-25.8116867316381 -485.9999999999991,-1.7408297026122455e-13 -483.9347191348336,26.241881510498413 -477.78973060851143,51.837600806397 -467.7163444325983,76.15690633130845 -453.96260080639723,98.60097607206178 -436.86716254404337,118.61716254404274 -416.85097607206256,135.71260080639684 -394.40690633130936,149.46634443259816 -370.087600806398,159.53973060851152 -344.49188151049947,165.68471913483395 -318.2500000000009,167.74999999999972 -292.0081184895023,165.6847191348342 -266.4123991936037,159.53973060851203 -242.0930936686922,149.4663444325989 -219.64902392793886,135.7126008063978 -199.63283745595788,118.61716254404391 -182.5373991936038,98.60097607206312 -168.78365556740246,76.15690633130991 -158.71026939148908,51.83760080639855" stroke="#add8e6" stroke-linecap="round" stroke-linejoin="round" stroke-width="3.0"/><polyline fill="none" points="-158.71026939148908,51.83760080639855 -152.56528086516664,26.24188151050001 -150.50000000000088,1.4281908988778014e-12 -152.59913792852976,-26.672076289357808 -158.8448639716769,-52.68739754092688 -169.08338762588366,-77.405380205591 -183.06260245907166,-100.21738551586489 -200.43829380769364,-120.56170619230457 -220.78261448413315,-137.93739754092678 -243.5946197944069,-151.916612374115 -268.3126024590709,-162.15513602832203 -294.3279237106399,-168.40086207146942 -320.9999999999991,-170.49999999999855 -347.67207628935836,-168.40086207146967 -373.68739754092746,-162.15513602832254 -398.4053802055916,-151.91661237411574 -421.2173855158655,-137.93739754092775 -441.56170619230517,-120.56170619230575 -458.93739754092735,-100.21738551586625 -472.9166123741156,-77.4053802055925 -483.1551360283226,-52.687397540928465 -489.40086207147,-26.672076289359445 -491.49999999999915,-2.1316282072803006e-13 -489.3670050081069,27.102271068219675 -483.0205414481348,53.53719427545923 -472.6168803156343,78.65385407987601 -458.4121942754594,101.83379495967047 -440.7562498405693,122.50624984056887 -420.0837949596711,140.16219427545917 -396.90385407987674,154.36688031563432 -371.78719427546,164.77054144813502 -345.35227106822055,171.11700500810738 -318.2500000000007,173.24999999999991 -291.14772893178076,171.11700500810767 -264.71280572454117,164.7705414481356 -239.59614592012437,154.36688031563514 -216.4162050403299,140.16219427546022 -195.7437501594315,122.50624984057012 -178.08780572454117,101.8337949596719 -163.88311968436602,78.65385407987759 -153.47945855186532,53.537194275460905 -147.13299499189296,27.102271068221395 -145.00000000000043,1.5099033134902129e-12" stroke="#add8e6" stroke-linecap="round" stroke-linejoin="round" stroke-width="3.0"/><polyline fill="none" points="-145.00000000000043,1.5099033134902129e-12 -146.96577458437767,-26.2314388470051 -152.81918618163937,-51.87691069631747 -162.4294792491742,-76.36353808468851 -175.5819757203847,-99.14433021919575 -191.98287055795018,-119.71040184768009 -211.26579487286233,-137.60234091437155 -232.99999999999926,-152.42047106605958 -256.6999797115136,-163.8337797613784 -281.83631562368765,-171.5873125439995 -307.8475035287882,-175.50786830388637 -334.1524964712094,-175.5078683038865 -360.16368437631,-171.5873125439999 -385.3000202884841,-163.83377976137905 -408.9999999999986,-152.4204710660605 -430.7342051271357,-137.60234091437272 -450.01712944204803,-119.71040184768145 -466.41802427961375,-99.14433021919729 -479.57052075082447,-76.3635380846902 -489.1808138183596,-51.87691069631927 -495.03422541562156,-26.231438847006967 -496.9999999999991,-3.836930773104541e-13 -495.00351018774097,26.6413050789907 -489.05863903427206,52.687487425948575 -479.29818513755697,77.5567183672629 -465.9401809089838,100.6934603788718 -449.2830220895813,121.5808768765512 -429.6988020822487,139.7523774911597 -407.6250000000002,154.80204092646784 -383.5547081054935,166.39368257015101 -358.0256169446917,174.26836430250057 -331.608004228574,178.25017874613567 -304.89199577142745,178.25017874613582 -278.47438305530966,174.268364302501 -252.94529189450782,166.3936825701517 -228.87500000000097,154.80204092646878 -206.80119791775238,139.75237749116087 -187.21697791041953,121.58087687655257 -170.55981909101686,100.69346037887334 -157.20181486244346,77.5567183672646 -147.44136096572814,52.68748742595038 -141.49648981225894,26.641305078992584 -139.50000000000054,1.5347723092418164e-12" stroke="#add8e6" stroke-linecap="round" stroke-linejoin="round" stroke-width="3.0"/><polyline fill="none" points="-139.50000000000054,1.5347723092418164e-12 -137.47279495986123,-27.051171310973988 -131.43646425018483,-53.49806415557728 -121.52584952428927,-78.74989864983479 -107.96233753835321,-102.2425905385452 -91.04891473711359,-123.45135190541947 -71.16339903736025,-141.90241406794482 -48.75000000000014,-157.18361078687283 -24.309395922500894,-168.9535853789201 1.6124504869286511,-176.94941606099783 28.4364880140636,-180.9924891883809 55.56351198593546,-180.99248918838074 82.38754951307037,-176.9494160609974 108.30939592249982,-168.9535853789194 132.74999999999892,-157.18361078687187 155.16339903735886,-141.90241406794362 175.048914737112,-123.45135190541806 191.9623375383514,-102.24259053854361 205.5258495242872,-78.74989864983306 215.43646425018247,-53.49806415557545 221.47279495985856,-27.051171310972094 223.49999999999756,3.4425795547576854e-12 225.55792026801745,27.461037542963457 231.6857105339008,54.30864088521231 241.7464860889763,79.94307893241321 255.51550583227475,103.79172069822545 272.68519261535107,125.32182693429498 292.8720040075247,144.05245064473758 315.62499999999613,159.56518064728596 340.43591626048766,171.51348818769785 366.7505179185448,179.63046781950433 393.9809802566969,183.7347996306359 421.5190197432941,183.73479963063608 448.7494820814463,179.63046781950482 475.06408373950353,171.51348818769864 499.87499999999517,159.56518064728704 522.6279959924668,144.0524506447389 542.8148073846406,125.32182693429652 559.9844941677172,103.7917206982272 573.753513911016,79.94307893241513 583.8142894660917,54.308640885214345 589.9420797319754,27.461037542965563 591.9999999999956,5.5848659030743875e-12" stroke="#add8e6" stroke-linecap="round" stroke-linejoin="round" stroke-width="3.0"/><polyline fill="none" points="591.9999999999956,5.5848659030743875e-12 590.0966096317302,-26.612874757098595 584.4251860659069,-52.683988129341515 575.101183131291,-77.68260743134684 562.3144106394271,-101.09983286419076 546.3251704042427,-122.45895724776229 527.4589572477649,-141.32517040424028 506.0998328641936,-157.3144106394249 482.6826074313498,-170.10118313128902 457.68398812934464,-179.4251860659052 431.6128747571018,-185.0966096317287 404.99999999999767,-186.99999999999443 378.3871252428935,-185.09660963172902 352.3160118706506,-179.4251860659058 327.3173925686453,-170.10118313128993 303.9001671358014,-157.3144106394261 282.5410427522299,-141.32517040424173 263.67482959575193,-122.45895724776396 247.68558936056732,-101.09983286419263 234.89881686870322,-77.68260743134887 225.57481393408708,-52.683988129343675 219.90339036826356,-26.612874757100847 217.99999999999784,3.2862601528904634e-12 219.93138140309068,27.00424056235897 225.6862082566466,53.458752660664246 235.14732888147742,78.82499871711079 248.12214214528043,102.58659511220239 264.3465182662763,124.25982426612053 283.49017573387874,143.40348173372317 305.1634048877967,159.6278578547193 328.9250012828881,172.60267111852258 354.2912473393345,182.06379174335368 380.7457594376397,187.8186185969099 407.7499999999954,189.75000000000304 434.7542405623511,187.8186185969102 461.20875266065633,182.06379174335427 486.57499871710286,172.60267111852346 510.33659511219446,159.62785785472045 532.0098242661126,143.40348173372456 551.1534817337152,124.25982426612214 567.3778578547114,102.58659511220418 580.3526711185146,78.82499871711273 589.8137917433457,53.458752660666306" stroke="#add8e6" stroke-linecap="round" stroke-linejoin="round" stroke-width="3.0"/><polyline fill="none" points="589.8137917433457,53.458752660666306 595.568618596902,27.004240562361105 597.4999999999951,5.46052092431637e-12 595.5406275620749,-27.39560636760173 589.7023974207863,-54.23351719196938 580.1041591057406,-79.96739000285716 566.9413050699984,-104.07335736019644 550.481793063191,-126.0606912844612 531.0606912844639,-145.4817930631885 509.07335736019934,-161.94130506999613 484.9673900028602,-175.10415910573857 459.23351719197257,-184.7023974207846 432.395606367605,-190.5406275620735 404.99999999999784,-192.4999999999941 377.60439363239067,-190.5406275620738 350.76648280802306,-184.7023974207852 325.0326099971353,-175.10415910573946 300.92664263979606,-161.94130506999727 278.9393087155313,-145.48179306318985 259.518206936804,-126.06069128446278 243.05869492999636,-104.0733573601982 229.89584089425395,-79.96739000285908 220.29760257920793,-54.23351719197143 214.45937243791903,-27.395606367603865 212.49999999999847,3.2791547255328624e-12 214.48736347274618,27.786972172861965 220.4089969017675,55.00828172329197 230.14435290702818,81.10978128862097 243.49524771470954,105.56011960820791 260.1898956073285,127.86155830281928 279.8884416971802,147.5601043926712 302.1898803917914,164.25475228529035 326.6402187113782,177.60564709297194 352.7417182767071,187.34100309823287 379.96302782713707,193.26263652725447 407.74999999999574,195.25000000000247 435.5369721728544,193.26263652725476 462.7582817232844,187.34100309823344 488.8597812886134,177.60564709297276 513.3101196082004,164.25475228529143 535.6115583028117,147.5601043926725 555.3101043926636,127.86155830282078 572.0047522852827,105.5601196082096" stroke="#add8e6" stroke-linecap="round" stroke-linejoin="round" stroke-width="3.0"/><polyline fill="none" points="572.0047522852827,105.5601196082096 585.3556470929643,81.10978128862281 595.0910030982252,55.00828172329395 601.0126365272467,27.786972172864026 602.9999999999948,5.3930193644191604e-12 601.1558173151884,-26.960996521051165 595.6576228948594,-53.419760689084896 586.6078376980751,-78.88341578954969 574.1750421002004,-102.87762210700954 558.590835559471,-124.955412976552 540.1455223572897,-144.70552092706203 519.1827037787401,-161.7600388160609 496.09287747076485,-175.80127324366364 471.3061632098523,-186.56766257951983 445.28429058441884,-193.85864936109337 418.51199784620246,-197.5384162997203 391.48800215379305,-197.53841629972044 364.71570941557667,-193.85864936109377 338.6938367901431,-186.5676625795205 313.90712252923043,-175.80127324366455 290.817296221255,-161.76003881606204 269.8544776427053,-144.70552092706336 251.4091644405238,-124.95541297655353 235.8249578997942,-102.87762210701122 223.39216230191926,-78.88341578955148 214.34237710513466,-53.41976068908677 208.84418268480536,-26.96099652105308 206.99999999999872,3.4710012641880894e-12 208.86979633320516,27.335454806074715 214.44435456492766,54.1617018097756 223.61983122277846,79.97901878663575 236.22530453729033,104.3064779696159 252.02595839108537,126.69090482345757 270.7274564988526,146.7153198288358 291.9814253354375,164.00670602184854 315.391943675468,178.24295759427912 340.52291785667103,189.15888011535552 366.90620537968,196.55113060222868 394.05033551703826,200.2820054150032 421.4496644829534,200.28200541500334 448.59379462031166,196.55113060222908 474.9770821433207,189.15888011535617 500.10805632452383,178.24295759428" stroke="#add8e6" stroke-linecap="round" stroke-linejoin="round" stroke-width="3.0"/><polyline fill="none" points="500.10805632452383,178.24295759428 523.5185746645544,164.00670602184965 544.7725435011396,146.7153198288371 563.474041608907,126.69090482345906 579.2746954627022,104.30647796961755 591.8801687772143,79.97901878663752 601.0556454350653,54.16170180977747 606.6302036667881,27.33545480607663 608.4999999999949,5.3930193644191604e-12 606.6045900183883,-27.70991309108053 600.9536679752723,-54.903642930448555 591.652499856355,-81.07462178370405 578.874348825206,-105.73533383220447 562.8572476583453,-128.42639667034535 543.8995646449922,-148.72511873059176 522.3544455503719,-166.2533732276184 498.6232351782862,-180.6846419448768 473.14800107679275,-191.75009765117343 446.40329865620834,-199.24361184334623 418.88733111970816,-203.02559453026836 391.11266888028734,-203.0255945302685 363.5967013437871,-199.24361184334666 336.85199892320264,-191.75009765117412 311.37676482170906,-180.68464194487774 287.6455544496232,-166.2533732276196 266.1004353550027,-148.72511873059315 247.14275234164944,-128.42639667034692 231.1256511747885,-105.7353338322062 218.34750014363922,-81.0746217837059 209.04633202472172,-54.90364293045049 203.3954099816055,-27.70991309108251 201.4999999999987,3.4070524179696804e-12 203.42102363000532,28.084371376104013 209.14830948451475,55.64558405113918 218.57516906449845,82.17022478079002 231.52599781228463,107.16418969481073 247.75954629221104,130.16188851725082 266.97341421114993,150.73491763236544 288.8096835638057,168.50004043340596 312.86158596794667,183.12632629549216 338.6810799897306,194.34131518700903 365.7871973078905,201.93609308448146 393.67500224353256,205.76918364555118" stroke="#add8e6" stroke-linecap="round" stroke-linejoin="round" stroke-width="3.0"/><polyline fill="none" points="393.67500224353256,205.76918364555118 421.8249977564591,205.76918364555132 449.71280269210115,201.93609308448188 476.81892001026114,194.3413151870097 502.6384140320452,183.1263262954931 526.6903164361863,168.50004043340712 548.5265857888422,150.73491763236683 567.7404537077813,130.1618885172524 583.9740021877079,107.16418969481248 596.9248309354944,82.1702247807919 606.3516905154784,55.64558405114114 612.078976369988,28.084371376106027 613.9999999999949,5.4356519285647664e-12 612.0533627215882,-28.458829661109842 606.2497130556853,-56.38752517181214 596.6971620146352,-83.26582777785833 583.5736555502118,-108.59304555739931 567.1236597572197,-131.89738036413857 547.653606932695,-152.74471653412138 525.5261873220038,-170.74670763917575 501.15359288580765,-185.5680106460898 474.9898389437333,-196.93253272282686 447.52230672799794,-204.62857432559892 419.262664393214,-208.51277276081623 390.73733560678176,-208.51277276081638 362.4776932719978,-204.62857432559935 335.01016105626235,-196.93253272282755 308.84640711418785,-185.56801064609073 284.4738126779916,-170.74670763917695 262.34639306730026,-152.74471653412277 242.87634024277529,-131.89738036414016 226.42634444978296,-108.59304555740104 213.3028379853594,-83.26582777786018 203.75028694430898,-56.38752517181409 197.94663727840583,-28.458829661111842 195.99999999999883,3.4212632726848824e-12 194.18844939590306,27.638921202599075 188.78479371670883,54.804932800461636 179.88149100926356,81.03321680331032 167.63087925135346,105.87500000000227 152.24256980666766,128.90523259259857 133.97986091625012,149.72986091625313 113.15523259259538,167.99256980667047" stroke="#add8e6" stroke-linecap="round" stroke-linejoin="round" stroke-width="3.0"/><polyline fill="none" points="113.15523259259538,167.99256980667047 90.12499999999893,183.38087925135605 65.28321680330689,195.6314910092659 39.05493280045812,204.5347937167109 11.888921202595515,209.93844939590488 -15.750000000000146,211.75000000000037 -43.38892120259579,209.9384493959046 -70.55493280045835,204.53479371671037 -96.78321680330703,195.6314910092651 -121.62499999999896,183.380879251355 -144.65523259259524,167.99256980666922 -165.47986091624978,149.7298609162517 -183.7425698066671,128.905232592597 -199.13087925135267,105.87500000000057 -211.3814910092625,81.03321680330853 -220.28479371670753,54.804932800459774 -225.6884493959015,27.63892120259718 -227.49999999999702,1.5347723092418164e-12 -225.66492276467923,-27.99786823119923 -220.191089739002,-55.51668517448856 -211.17215972366785,-82.0855962423093 -198.76244911175894,-107.24999999999721 -183.17429149246686,-130.57932652236747 -164.67440456451146,-151.67440456451104 -143.57932652236775,-170.17429149246624 -120.24999999999736,-185.76244911175812 -95.08559624230932,-198.1721597236668 -68.51668517448852,-207.19108973900072 -40.99786823119915,-212.66492276467773 -12.999999999998373,-214.49999999999525 14.997868231202386,-212.66492276467747 42.516685174491705,-207.19108973900023 69.08559624231243,-198.17215972366608 94.25000000000036,-185.76244911175718 117.57932652237062,-170.1742914924651 138.6744045645142,-151.6744045645097 157.1742914924694,-130.579326522366 172.76244911176127,-107.2499999999956 185.17215972366995,-82.08559624230756 194.19108973900387,-55.51668517448675 199.66492276468088,-27.997868231197387 201.4999999999984,3.3857361358968774e-12 199.6413961334586,28.356815259809277" stroke="#add8e6" stroke-linecap="round" stroke-linejoin="round" stroke-width="3.0"/><polyline fill="none" points="199.6413961334586,28.356815259809277 194.0973857612983,56.22843754852538 184.96282843807526,83.13797568131817 172.39401897216754,108.62500000000207 156.60601317826917,132.25342045214632 137.86894821277588,153.6189482127789 116.50342045214313,172.35601317827198 92.87499999999876,188.14401897217016 67.38797568131474,200.71282843807765 40.47843754852188,209.84738576130047 12.606815259805735,215.39139613346052 -15.75000000000017,217.25000000000006 -44.10681525980606,215.39139613346026 -71.97843754852217,209.8473857613 -98.88797568131496,200.71282843807694 -124.37499999999886,188.14401897216922 -148.0034204521431,172.35601317827084 -169.36894821277568,153.61894821277758 -188.10601317826877,132.25342045214484 -203.89401897216695,108.62500000000047 -216.46282843807444,83.13797568131645 -225.59738576129726,56.22843754852359 -231.1413961334573,28.356815259807444 -232.99999999999685,1.5418777365994174e-12 -231.11786950223504,-28.71576228840948 -225.50368178359173,-56.940189922552364 -216.25349715247978,-84.19035512031721 -203.52558883257325,-109.99999999999712 -187.53773486406857,-133.92751438191533 -168.56349186103742,-155.56349186103694 -146.92751438191567,-174.53773486406791 -122.99999999999733,-190.5255888325724 -97.19035512031732,-203.25349715247873 -69.9401899225524,-212.50368178359045 -41.71576228840948,-218.11786950223353 -12.999999999998444,-219.9999999999951 15.715762288412574,-218.1178695022333 43.94018992255545,-212.50368178359 71.19035512032028,-203.25349715247805 97.00000000000018,-190.52558883257151 120.92751438191839,-174.53773486406683 142.56349186103998,-155.5634918610357 161.53773486407096,-133.92751438191394" stroke="#add8e6" stroke-linecap="round" stroke-linejoin="round" stroke-width="3.0"/><polyline fill="none" points="161.53773486407096,-133.92751438191394 177.52558883257544,-109.99999999999561 190.25349715248177,-84.1903551203156 199.5036817835935,-56.940189922550694 205.11786950223657,-28.715762288407777 206.99999999999815,3.247180302423658e-12 205.243549717798,27.917977776451686 200.0018991414006,55.39567236597398 191.357712231606,81.99974411051426 179.44731297976864,107.31063090615898 164.45853549701764,130.92916494814995 146.62776175811763,152.48286784561665 126.236193716519,171.631824828308 103.60541858157005,188.07404540557454 79.0923371961187,201.55022593680627 53.08353549701856,211.84783900474565 25.98918782396946,218.8044850998154 -1.7634117748458493,222.31045375739734 -29.736588225154648,222.31045375739723 -57.48918782396993,218.80448509981505 -84.58353549701897,211.84783900474508 -110.59233719611903,201.55022593680548 -135.10541858157026,188.07404540557354 -157.73619371651907,171.63182482830683 -178.12776175811754,152.48286784561532 -195.95853549701738,130.92916494814847 -210.94731297976818,107.31063090615734 -222.85771223160532,81.9997441105125 -231.5018991413997,55.39567236597213 -236.74354971779687,27.917977776449767 -238.4999999999968,1.2860823517257813e-12 -236.72186514641143,-28.262644168749013 -231.41550283450295,-56.07956955567284 -222.6645975677973,-83.01208663039264 -210.60715634988787,-108.63545350993424 -195.43333223154733,-132.5455743919498 -177.38242548352508,-154.36537238691608 -156.73910968832644,-173.75073624593696 -133.82894226776082,-190.39594720070062 -109.01323024792117,-204.03850033108336 -82.68333223154816,-214.46324442455287 -55.25448643907868,-221.50577503931484 -27.159262153858226,-225.05502726057063" stroke="#add8e6" stroke-linecap="round" stroke-linejoin="round" stroke-width="3.0"/><polyline fill="none" points="-27.159262153858226,-225.05502726057063 1.1592621538618104,-225.0550272605705 29.25448643908224,-221.50577503931447 56.68333223155166,-214.46324442455224 83.01323024792458,-204.0385003310825 107.82894226776412,-190.39594720069954 130.7391096883296,-173.75073624593568 151.38242548352807,-154.3653723869146 169.43333223155014,-132.54557439194812 184.6071563498905,-108.6354535099324 196.66459756779972,-83.01208663039068 205.41550283450513,-56.07956955567079 210.7218651464134,-28.262644168746892 212.4999999999985,3.4425795547576854e-12 210.70018057502796,28.60731056105559 205.32910652760836,56.763466745380946 196.47148290399164,84.02442915028027 184.26699972001012,109.96027611371872 168.90812896608006,134.1619838357589 150.63708920893558,156.2478769282248 129.74202566013693,175.86964766357522 106.55246595395462,192.717848995836 81.43412329972665,206.52677472536976 54.783128966080774,217.07864984436938 27.019785054190905,224.20706497882358 -1.4180639174347078,227.7996007637532 -30.081936082565992,227.79960076375306 -58.51978505419157,224.20706497882318 -86.28312896608138,217.07864984436873 -112.93412329972716,206.52677472536885 -138.05246595395502,192.71784899583486 -161.2420256601372,175.86964766357386 -182.13708920893566,156.24787692822323 -200.40812896607997,134.16198383575716 -215.76699972000984,109.96027611371682 -227.97148290399113,84.02442915027822 -236.8291065276076,56.76346674537879 -242.20018057502693,28.607310561053357 -243.99999999999721,1.1581846592889633e-12 -242.17849600364147,-28.95197695335285 -236.7427102207108,-57.44736393507975 -227.77836824018303,-85.03677167015861 -215.42684309012944,-111.28509871749394" stroke="#add8e6" stroke-linecap="round" stroke-linejoin="round" stroke-width="3.0"/><polyline fill="none" points="-215.42684309012944,-111.28509871749394 -199.88292570060983,-135.7783932795587 -181.3917529343431,-158.13038146952422 -160.24494163194444,-177.9885590812042 -136.77598964014547,-195.0397507909621 -111.35501635152919,-209.01504911964687 -84.38292570061044,-219.69405526417663 -56.285083669300185,-226.90835491832303 -27.504610011269413,-230.5441742669265 1.5046100112731189,-230.54417426692635 30.28508366930386,-226.9083549183226 58.38292570061405,-219.69405526417592 85.3550163515327,-209.0150491196459 110.77598964014885,-195.03975079096088 134.24494163194768,-177.98855908120274 155.39175293434616,-158.13038146952258 173.8829257006127,-135.77839327955687 189.42684309013208,-111.28509871749192 201.77836824018544,-85.03677167015644 210.74271022071295,-57.44736393507746 216.17849600364335,-28.951976953350485 217.9999999999988,3.5775826745521044e-12 216.15681143225788,29.296643345659454 210.65631391381612,58.13126112478788 201.58525357637728,86.04911419004628 189.0866864602516,112.60992132127849 173.35772243514245,137.39480272336786 154.64641665975347,160.01288601083297 133.2478576037548,180.10747049884247 109.49951332633913,197.3616525860975 83.77590940333452,211.5033235139333 56.482722435142904,222.30946068399317 28.05038228441225,229.6096448578318 -1.0727160600236836,233.28874777010913 -30.427283939977467,233.28874777010898 -59.55038228441337,229.60964485783137 -87.98272243514396,222.30946068399246 -115.27590940333548,211.50332351393232 -140.99951332633995,197.36165258609626 -164.74785760375545,180.10747049884097 -186.14641665975392,160.01288601083124 -204.8577224351427,137.39480272336593 -220.58668646025163,112.60992132127637" stroke="#add8e6" stroke-linecap="round" stroke-linejoin="round" stroke-width="3.0"/><polyline fill="none" points="-220.58668646025163,112.60992132127637 -233.08525357637706,86.04911419004402 -242.1563139138156,58.13126112478551 -247.6568114322571,29.296643345656996 -249.49999999999773,1.0729195309977513e-12 -247.77564872418736,-28.506924880382627 -242.62773982125879,-56.59815460400592 -234.13134139509802,-83.86405578555795 -222.4103500669815,-109.9070301883493 -207.63568428384707,-134.34731260191614 -190.02279194246276,-156.8285086739456 -169.82850867394546,-177.0227919424627 -147.3473126019158,-194.63568428384679 -122.90703018834881,-209.41035006698095 -96.86405578555735,-221.1313413950972 -69.59815460400525,-229.6277398212577 -41.506924880381916,-234.775648724186 -12.99999999999821,-236.49999999999608 15.506924880385476,-234.77564872418571 43.598154604008755,-229.62773982125714 70.86405578556078,-221.13134139509637 96.90703018835211,-209.41035006697984 121.34731260191894,-194.63568428384542 143.8285086739484,-177.0227919424611 164.0227919424655,-156.82850867394382 181.63568428384957,-134.34731260191418 196.41035006698374,-109.9070301883472 208.13134139509998,-83.86405578555576 216.62773982126046,-56.59815460400366 221.77564872418876,-28.50692488038034 223.49999999999883,3.353761712787673e-12 221.7555981279581,28.838400751089164 216.54782981918152,57.256272680801075 207.95263606248398,84.83921922492927 196.0953541375289,111.18501891147397 181.1488899150557,135.9094906554311 163.33119649993435,158.65209598411207 142.9020959841087,179.08119649993748 120.15949065542758,196.8988899150586 95.4350189114703,211.84535413753153 69.08921922492547,223.70263606248633 41.506272680797196,232.29782981918356 13.088400751085246,237.50559812795984" stroke="#add8e6" stroke-linecap="round" stroke-linejoin="round" stroke-width="3.0"/><polyline fill="none" points="13.088400751085246,237.50559812795984 -15.750000000000572,239.25000000000026 -44.58840075108637,237.50559812795953 -73.00627268079826,232.29782981918297 -100.58921922492644,223.70263606248545 -126.93501891147113,211.8453541375304 -151.65949065542824,196.89888991505723 -174.4020959841092,179.0811964999359 -194.8311964999346,158.6520959841103 -212.6488899150557,135.90949065542918 -227.5953541375286,111.18501891147191 -239.4526360624834,84.83921922492709 -248.04782981918063,57.25627268079883 -253.25559812795692,28.83840075108689 -254.99999999999733,1.0871303857129533e-12 -253.23554753172627,-29.169876621786834 -247.9679198171017,-57.914390757587356 -239.2739307298674,-85.81438266429171 -227.28035820807378,-112.46300763458979 -212.16209554626184,-137.47166870893722 -194.1396010574035,-160.47568329426966 -173.47568329426954,-181.1396010574034 -150.4716687089369,-199.16209554626153 -125.46300763458933,-214.2803582080732 -98.81438266429114,-226.27393072986655 -70.9143907575867,-234.96791981710052 -42.16987662178613,-240.23554753172482 -12.999999999998202,-241.9999999999956 16.169876621789708,-240.23554753172454 44.914390757590226,-234.96791981709995 72.81438266429457,-226.2739307298657 99.46300763459263,-214.28035820807207 124.47166870894004,-199.16209554626013 147.47568329427247,-181.1396010574018 168.1396010574062,-160.47568329426784 186.16209554626428,-137.47166870893523 201.28035820807597,-112.46300763458765 213.2739307298693,-85.81438266428947 221.96791981710328,-57.91439075758504 227.23554753172755,-29.169876621784475 228.99999999999832,3.446132268436486e-12 227.2154969354969,29.50135249249348 221.8880098150243,58.57250883438263" stroke="#add8e6" stroke-linecap="round" stroke-linejoin="round" stroke-width="3.0"/><polyline fill="none" points="221.8880098150243,58.57250883438263 213.09522539725327,86.78954610366316 200.9653622786211,113.7409963577146 185.67530117747037,139.0338467624523 167.448005614875,162.29927060443623 146.5492706044327,183.1980056148783 123.28384676244859,201.42530117747341 97.99099635771071,216.71536227862384 71.03954610365915,228.84522539725575 42.82250883437854,237.63800981502646 13.751352492489339,242.96549693549875 -15.75000000000071,244.74999999999986 -45.25135249249074,242.96549693549844 -74.32250883437987,237.63800981502584 -102.53954610366038,228.8452253972548 -129.49099635771182,216.71536227862262 -154.78384676244954,201.4253011774719 -178.04927060443347,183.19800561487654 -198.94800561487554,162.29927060443424 -217.17530117747066,139.0338467624501 -232.4653622786211,113.74099635771223 -244.595225397253,86.78954610366067 -253.3880098150237,58.57250883438006 -258.715496935496,29.501352492490867 -260.4999999999971,8.242295734817162e-13 -258.82649354112783,-28.732996245993366 -253.82860546850324,-57.07742800875252 -245.5739236445091,-84.64998547310127 -234.1740784800413,-111.07779709961233 -219.78323332469853,-136.0034720725221 -202.59599967194387,-159.08993339741576 -182.84480537250846,-180.0249762893265 -160.7967514464366,-198.52549020687 -136.74999999999716,-214.34128743664493 -111.02974209468864,-227.2584864528639 -83.98380009599238,-237.10240429807934 -55.97792397256303,-243.7399188705171 -27.3908451553408,-247.08126917213428 1.3908451553444579,-247.0812691721341 29.977923972566657,-243.7399188705166 57.983800095995925,-237.10240429807848 85.02974209469208,-227.25848645286274 110.75000000000044,-214.34128743664346" stroke="#add8e6" stroke-linecap="round" stroke-linejoin="round" stroke-width="3.0"/><polyline fill="none" points="110.75000000000044,-214.34128743664346 134.79675144643969,-198.52549020686823 156.84480537251136,-180.02497628932448 176.59599967194654,-159.0899333974135 193.78323332470094,-136.00347207251963 208.17407848004342,-111.07779709960967 219.57392364451096,-84.64998547309847 227.8286054685048,-57.07742800874961 232.82649354112908,-28.73299624599038 234.499999999998,3.844036200462142e-12 232.8078990249191,29.052251759842424 227.75447886259866,57.71162165329891 219.40807835167124,85.59054086725155 207.88156824093153,112.31199484516829 193.33082480608493,137.5146217622215 175.95262189052187,160.85759932405844 155.98196987664826,182.0252538036571 133.68893757362002,200.73132898695107 109.37499999999791,216.72285729705686 83.36896145129707,229.7835807467894 56.0225089859486,239.73687545695168 27.705456461147797,246.44814019130544 -1.1992565651547054,249.82661660738503 -30.300743434847597,249.82661660738486 -59.205456461150064,246.44814019130493 -87.5225089859508,239.73687545695086 -114.86896145129916,229.78358074678826 -140.87499999999986,216.7228572970554 -165.18893757362179,200.73132898694934 -187.48196987664983,182.0252538036551 -207.4526218905232,160.8575993240562 -224.830824806086,137.51462176221904 -239.38156824093232,112.31199484516561 -250.90807835167172,85.59054086724872 -259.25447886259883,57.711621653295964 -264.3078990249189,29.052251759839386 -265.9999999999975,7.567280135845067e-13 -264.28930450870894,-29.37150727368223 -259.1803522566927,-58.34581529783607 -250.74223305883197,-86.5310962613926 -239.08905800182038,-113.54619259071505 -224.37841628746997,-139.02577145191174 -206.8092441090985,-162.62526525069197" stroke="#add8e6" stroke-linecap="round" stroke-linejoin="round" stroke-width="3.0"/><polyline fill="none" points="-206.8092441090985,-162.62526525069197 -186.6191343807867,-184.02553131797853 -164.0811237008021,-202.937167767023 -139.4999999999973,-219.1044271574596 -113.20818080790411,-232.30867504070568 -85.56121787590344,-242.3713466158148 -56.93298894973117,-249.15636151208452 -27.71064171434839,-252.57196404262652 1.7106417143521426,-252.57196404262635 30.93298894973488,-249.15636151208398 59.56121787590706,-242.3713466158139 87.20818080790762,-232.30867504070446 113.50000000000065,-219.10442715745805 138.08112370080528,-202.93716776702112 160.6191343807897,-184.02553131797637 180.80924410910126,-162.62526525068955 198.37841628747245,-139.02577145190912 213.08905800182256,-113.54619259071222 224.74223305883385,-86.53109626138962 233.18035225669422,-58.34581529783296 238.28930450871016,-29.37150727367903 239.99999999999838,4.007461029686965e-12 238.27070999250014,29.6907627875314 233.10622565078802,58.9800089423826 224.57638776599404,87.47165165554303 212.7965477627106,114.78039033627117 197.92600776885635,140.53692114161132 180.1658663276765,164.39293117733482 159.7562988849265,186.0258088323093 136.9733098279855,205.14300654710428 112.12499999999802,221.48599701787174 85.5474001645125,234.83376933463137 57.59992676585961,245.00581777468733 28.660521438315882,251.86458283287303 -0.8794600061471662,255.31731147787744 -30.620539993855335,255.31731147787724 -60.16052143831834,251.86458283287246 -89.09992676586198,245.0058177746864 -117.04740016451473,234.8337693346301 -143.62500000000009,221.48599701787012 -168.47330982798735,205.14300654710235 -191.2562988849281,186.0258088323071 -211.66586632767783,164.39293117733234" stroke="#add8e6" stroke-linecap="round" stroke-linejoin="round" stroke-width="3.0"/><polyline fill="none" points="-211.66586632767783,164.39293117733234 -229.4260077688574,140.53692114160862 -244.29654776271133,114.78039033626825 -256.07638776599447,87.47165165553996 -264.6062256507881,58.980008942379406 -269.7707099924998,29.690762787528143 -271.49999999999767,7.140954494389007e-13 -269.8746062574007,-28.94281707270415 -265.0188652989988,-57.52166142770611 -256.99384088471027,-85.37713751540927 -245.9004523527725,-112.15894656188709 -231.87820550050856,-137.53029177921255 -215.10343821798278,-161.1721137804804 -195.7871029367196,-182.78710293672003 -174.17211378047972,-202.10343821798293 -150.53029177921167,-218.87820550050841 -125.15894656188603,-232.90045235277205 -98.37713751540807,-243.99384088470947 -70.5216614277048,-252.01886529899764 -41.94281707270278,-256.87460625739925 -12.99999999999789,-258.49999999999585 15.94281707270698,-256.8746062573989 44.52166142770895,-252.01886529899696 72.37713751541213,-243.99384088470845 99.15894656188996,-232.90045235277069 124.53029177921542,-218.87820550050674 148.17211378048327,-202.10343821798097 169.78710293672293,-182.7871029367178 189.10343821798583,-161.1721137804779 205.8782055005113,-137.53029177920985 219.90045235277495,-112.1589465618842 230.99384088471237,-85.37713751540623 239.01886529900054,-57.52166142770295 243.87460625740215,-28.942817072700922 245.49999999999875,3.9754866065777605e-12 243.85731483460822,29.250719381992948 238.94991705749987,58.13359399609068 230.83952004305937,86.28540493579071 219.62811673950526,113.35212684446512 205.45669704838744,138.9933799896345 188.50347479477097,162.8867107355967 168.9816465849837,184.73164658498786 147.13671073559232,204.25347479477486" stroke="#add8e6" stroke-linecap="round" stroke-linejoin="round" stroke-width="3.0"/><polyline fill="none" points="147.13671073559232,204.25347479477486 123.24337998962991,221.20669704839105 97.60212684446037,235.37811673950856 70.53540493578582,246.58952004306235 42.383593996085686,254.69991705750252 13.500719381987881,259.6073148346105 -15.750000000001123,261.25000000000074 -45.00071938199011,259.6073148346102 -73.88359399608785,254.69991705750184 -102.0354049357879,246.58952004306133 -129.10212684446233,235.37811673950722 -154.7433799896317,221.2066970483894 -178.6367107355939,204.25347479477293 -200.48164658498507,184.73164658498567 -220.00347479477207,162.88671073559428 -236.9566970483883,138.99337998963188 -251.12811673950583,113.35212684446233 -262.3395200430596,86.28540493578778 -270.4499170574998,58.13359399608764 -275.35731483460785,29.250719381989832 -276.99999999999807,8.242295734817162e-13 -275.34002341181395,-29.55862169127226 -270.3809688159992,-58.745526564465784 -262.1851992014067,-87.19367235616266 -250.85578112623622,-114.54530712703368 -236.53518859626453,-140.45646820004697 -219.40351137155736,-164.60130769070352 -199.67619023324602,-186.6761902332462 -177.60130769070315,-206.40351137155727 -153.4564682000464,-223.5351885962642 -127.54530712703297,-237.8557811262356 -100.19367235616184,-249.18519920140577 -71.74552656446485,-257.38096881599796 -42.55862169127127,-262.3400234118124 -12.99999999999816,-263.9999999999962 16.558621691274933,-262.34002341181207 45.74552656446846,-257.38096881599733 74.19367235616537,-249.18519920140483 101.54530712703638,-237.85578112623438 127.45646820004967,-223.53518859626269 151.60130769070625,-206.4035113715555 173.67619023324892,-186.6761902332442 193.40351137156,-164.60130769070133" stroke="#add8e6" stroke-linecap="round" stroke-linejoin="round" stroke-width="3.0"/><polyline fill="none" points="193.40351137156,-164.60130769070133 210.53518859626692,-140.45646820004458 224.85578112623833,-114.54530712703115 236.18519920140852,-87.19367235616002 244.38096881600072,-58.745526564463034 249.34002341181514,-29.558621691269447 250.99999999999895,3.6699532302009175e-12 249.32273198902126,29.866524000560865 244.31202057450014,59.35745913285017 236.03087835975563,88.10193977654392 224.5834455129688,115.73848740961151 210.11368014414325,141.9195564104687 192.80354794834537,166.31590464581961 172.87073388150995,188.6207338815138 150.56590464581558,208.55354794834898 126.16955641046448,225.8636801441466 99.98848740960715,240.33344551297188 72.35193977653942,251.78087835975842 43.60745913284558,260.06202057450264 14.116524000556211,265.07273198902345 -15.750000000001016,266.75000000000085 -45.61652400055823,265.07273198902317 -75.10745913284755,260.062020574502 -103.85193977654131,251.7808783597575 -131.48848740960892,240.33344551297068 -157.66955641046613,225.86368014414512 -182.06590464581706,208.55354794834722 -204.37073388151123,188.6207338815118 -224.30354794834642,166.31590464581743 -241.61368014414407,141.91955641046633 -256.0834455129694,115.73848740960898 -267.53087835975595,88.10193977654126 -275.8120205745002,59.35745913284741 -280.82273198902107,29.866524000558037 -282.49999999999847,8.064660050877137e-13 -280.8054405662272,-30.17442630984051 -275.7430723329997,-59.969391701225604 -267.3765575181032,-89.01020719691623 -255.81110989970003,-116.93166769218043 -241.1921716920206,-143.38264462088154 -223.70358452513202,-168.0305016009268 -203.56527752977252,-190.5652775297725 -181.03050160092664,-210.70358452513176" stroke="#add8e6" stroke-linecap="round" stroke-linejoin="round" stroke-width="3.0"/><polyline fill="none" points="-181.03050160092664,-210.70358452513176 -156.3826446208812,-228.1921716920201 -129.93166769217996,-242.8111098996993 -102.01020719691564,-254.37655751810223 -72.96939170122494,-262.74307233299845 -43.174426309839774,-267.8054405662257 -12.999999999998423,-269.49999999999665 17.174426309842914,-267.8054405662254 46.969391701228034,-262.7430723329979 76.01020719691867,-254.37655751810138 103.93166769218288,-242.8111098996982 130.382644620884,-228.19217169201877 155.0305016009293,-210.7035845251302 177.56527752977502,-190.5652775297707 197.70358452513432,-168.03050160092482 215.1921716920227,-143.38264462087938 229.8111098997019,-116.93166769217812 241.37655751810485,-89.0102071969138 249.7430723330011,-59.96939170122308 254.80544056622836,-30.174426309837916 256.4999999999993,3.439026841078885e-12 254.9040588352736,29.43540276592146 250.13494629207017,58.525702347454484 242.24857585451696,86.92984157952358 231.337408005417,114.31480789978491 217.52936621162505,140.3595376164469 200.98633713836034,164.7586800865051 181.9022726760712,187.22617767284686 160.5009160318514,207.49861950850124 137.03317854490746,225.3383297482155 111.77419798051676,240.53615410043162 85.02011279129064,252.9139119701232 57.08459016457941,262.32648546336003 28.295148561489334,268.6635207619319 -1.0106821376208295,271.85072192096976 -30.489317862380545,271.85072192096965 -59.79514856149068,268.6635207619316 -88.5845901645807,262.32648546335946 -116.52011279129187,252.9139119701224 -143.27419798051787,240.53615410043062 -168.53317854490842,225.3383297482143 -192.00091603185223,207.49861950849987 -213.40227267607185,187.22617767284532" stroke="#add8e6" stroke-linecap="round" stroke-linejoin="round" stroke-width="3.0"/><polyline fill="none" points="-213.40227267607185,187.22617767284532 -232.4863371383608,164.75868008650343 -249.0293662116253,140.35953761644507 -262.83740800541705,114.31480789978299 -273.7485758545168,86.9298415795216 -281.6349462920698,58.525702347452444 -286.40405883527296,29.4354027659194 -287.9999999999984,1.3820056210533949e-12 -286.3879382174472,-29.732730066582455 -281.570652820272,-59.11687105802993 -273.60462207526876,-87.80792078739263 -262.58324040951123,-115.46950292907073 -248.63572344608505,-141.77731072367877 -231.92559306905002,-166.42290917828302 -212.648760278859,-189.11735118468883 -191.03122831500062,-209.59456516009726 -167.32644297465322,-227.61447449314196 -141.8123211924404,-242.96581222265317 -114.78799271847464,-255.46859794961435 -86.57029309553401,-264.97624794278283 -57.4900490520087,-271.37729369891605 -27.888199860988347,-274.5966888090553 1.888199860991147,-274.5966888090552 31.490049052011468,-271.3772936989157 60.57029309553673,-264.97624794278227 88.78799271847727,-255.46859794961352 115.81232119244292,-242.96581222265215 141.3264429746556,-227.61447449314073 165.03122831500286,-209.59456516009584 186.64876027886106,-189.11735118468724 205.92559306905193,-166.4229091782813 222.63572344608676,-141.77731072367692 236.58324040951274,-115.46950292906878 247.60462207527004,-87.80792078739061 255.57065282027307,-59.116871058027854 260.387938217448,-29.732730066580352 261.999999999999,3.481659405224491e-12" stroke="#add8e6" stroke-linecap="round" stroke-linejoin="round" stroke-width="3.0"/><line fill="none" stroke="none" stroke-linecap="round" stroke-width="3.0" x1="0.0" x2="0.0" y1="0.0" y2="0.0"/><polygon fill="none" fill-rule="evenodd" points="0.0,0.0 0.0,0.0 0.0,0.0" stroke-linejoin="round"/></svg>